<?xml version="1.0" encoding="utf-8"?>
<!-- Generator: Adobe Illustrator 18.1.1, SVG Export Plug-In . SVG Version: 6.00 Build 0)  -->
<svg version="1.1" id="Layer_1" xmlns="http://www.w3.org/2000/svg" xmlns:xlink="http://www.w3.org/1999/xlink" x="0px" y="0px"
	 viewBox="0 0 337 592" xml:space="preserve">
<path d="M168.5,28.2l5.4,10c0,0,4.5,45.3,1.6,47.6
	c-2.9,2.4-1.2,11.8,0,15.9c1.2,4.1,14.1,47.6,35.3,63.5s52.3,25.9,63.5,26.5c11.2,0.6,30,28.2,28.8,39.4s0,36.4,0,38.2
	s-9.4,31.2-9.4,31.2l-6.5,12.9l-34.7,13.5l-26.5,12.3l-10.6,34.1v20.6l12.3,17l30.6,18.8l37.6,37.6v96.4H168.5c0,0-127.6,0-127.6,0
	v-96.4l37.6-37.6l30.6-18.8l12.3-17v-20.6l-10.6-34.1l-26.5-12.3l-34.7-13.5l-6.5-12.9c0,0-9.4-29.4-9.4-31.2s1.2-27,0-38.2
	c-1.2-11.2,17.6-38.8,28.8-39.4c11.2-0.6,42.3-10.6,63.5-26.5s34.1-59.4,35.3-63.5c1.2-4.1,2.9-13.5,0-15.9
	c-2.9-2.4,1.6-47.6,1.6-47.6S168.5,28.2,168.5,28.2z"/>
</svg>
